<?xml version="1.0" standalone="no"?>
<!DOCTYPE svg PUBLIC "-//W3C//DTD SVG 1.1//EN" "http://www.w3.org/Graphics/SVG/1.1/DTD/svg11.dtd">
<svg version="1.1" xmlns="http://www.w3.org/2000/svg" viewBox="0 0 453 85" width="453" height="85"><!-- svg-source:excalidraw --><metadata></metadata><defs><style class="style-fonts">
      </style></defs><g transform="translate(10 38) rotate(0 216.5 4.5)" stroke="none"><path fill="#1e1e1e" d="M -0.77,-3.08 Q -0.77,-3.08 2.66,-4.02 6.09,-4.95 10.60,-5.54 15.11,-6.13 20.18,-6.64 25.26,-7.14 31.16,-7.62 37.06,-8.10 43.83,-8.86 50.61,-9.62 58.15,-10.22 65.69,-10.83 74.94,-11.36 84.20,-11.90 93.59,-12.41 102.98,-12.92 111.89,-13.13 120.81,-13.35 130.89,-13.72 140.97,-14.09 150.46,-14.25 159.96,-14.41 169.99,-14.76 180.03,-15.11 189.47,-15.55 198.90,-15.98 209.24,-16.46 219.59,-16.93 229.73,-17.42 239.87,-17.90 249.39,-18.11 258.91,-18.32 267.23,-18.69 275.54,-19.07 283.09,-19.51 290.65,-19.96 297.36,-20.15 304.06,-20.34 309.79,-20.42 315.52,-20.50 320.76,-20.82 326.00,-21.14 330.51,-21.56 335.02,-21.98 339.61,-22.17 344.20,-22.35 349.25,-22.72 354.29,-23.08 358.72,-23.52 363.14,-23.96 367.11,-24.22 371.08,-24.49 375.58,-24.84 380.07,-25.18 384.56,-25.61 389.06,-26.03 392.33,-26.66 395.61,-27.29 398.87,-27.65 402.12,-28.02 404.95,-28.28 407.78,-28.53 410.83,-28.92 413.89,-29.32 416.89,-29.81 419.90,-30.30 422.47,-30.63 425.05,-30.96 426.63,-31.61 428.21,-32.26 428.77,-32.39 429.33,-32.53 429.90,-32.53 430.48,-32.53 431.03,-32.39 431.59,-32.25 432.10,-31.98 432.61,-31.71 433.04,-31.33 433.47,-30.94 433.79,-30.47 434.11,-29.99 434.32,-29.46 434.52,-28.92 434.58,-28.35 434.65,-27.78 434.58,-27.20 434.51,-26.63 434.30,-26.10 434.10,-25.56 433.77,-25.09 433.44,-24.62 433.01,-24.24 432.58,-23.86 432.07,-23.59 431.56,-23.33 429.45,-22.31 427.34,-21.29 424.20,-20.58 421.06,-19.88 417.29,-19.26 413.52,-18.65 407.64,-18.24 401.76,-17.83 394.84,-16.91 387.92,-15.99 380.82,-15.35 373.71,-14.72 367.55,-14.21 361.38,-13.70 353.90,-12.95 346.41,-12.19 339.46,-11.61 332.50,-11.02 325.80,-10.50 319.11,-9.98 313.62,-9.77 308.14,-9.56 302.12,-9.19 296.11,-8.83 289.23,-8.39 282.35,-7.96 276.57,-7.49 270.79,-7.02 265.39,-6.83 259.99,-6.63 254.89,-6.26 249.79,-5.90 244.68,-5.74 239.56,-5.58 234.51,-5.52 229.46,-5.45 223.64,-5.14 217.82,-4.83 211.90,-4.41 205.97,-3.99 200.81,-3.81 195.65,-3.63 189.77,-3.27 183.90,-2.91 176.84,-2.18 169.78,-1.46 162.41,-0.86 155.05,-0.26 149.36,0.27 143.68,0.81 138.15,1.61 132.63,2.41 127.42,3.32 122.21,4.23 117.35,4.91 112.48,5.60 108.52,6.47 104.55,7.34 101.10,8.14 97.65,8.94 93.62,9.77 89.59,10.59 85.37,11.76 81.14,12.92 77.64,14.09 74.14,15.26 70.29,16.33 66.43,17.40 62.17,18.37 57.91,19.34 54.81,20.45 51.72,21.56 48.87,22.46 46.02,23.36 43.56,24.35 41.10,25.33 38.80,26.16 36.50,26.99 32.72,27.51 28.93,28.03 30.48,28.26 32.03,28.49 31.49,28.65 30.94,28.81 30.37,28.83 29.81,28.86 29.25,28.75 28.69,28.64 28.18,28.40 27.67,28.16 27.22,27.80 26.78,27.44 26.44,26.99 26.10,26.54 25.87,26.02 25.65,25.50 25.55,24.94 25.46,24.38 25.50,23.81 25.54,23.25 25.72,22.71 25.90,22.17 26.20,21.69 26.50,21.21 26.91,20.81 27.31,20.41 27.80,20.13 28.29,19.84 32.35,18.39 36.41,16.93 38.98,16.16 41.56,15.39 46.13,14.72 50.70,14.05 54.85,13.32 58.99,12.59 64.53,11.49 70.06,10.39 74.51,9.67 78.95,8.95 83.68,8.12 88.41,7.29 92.47,6.63 96.54,5.96 101.41,5.16 106.28,4.36 110.69,3.74 115.11,3.13 121.00,2.31 126.90,1.48 132.09,1.13 137.28,0.78 143.47,0.36 149.66,-0.05 157.52,-0.23 165.39,-0.41 172.70,-0.77 180.01,-1.12 186.90,-1.27 193.80,-1.43 200.47,-1.49 207.14,-1.55 214.52,-1.86 221.90,-2.17 228.25,-2.30 234.60,-2.44 240.46,-2.49 246.32,-2.55 252.55,-2.57 258.79,-2.59 263.73,-2.60 268.68,-2.61 273.95,-2.62 279.21,-2.62 283.17,-2.69 287.14,-2.75 291.70,-2.74 296.26,-2.72 300.49,-2.71 304.73,-2.70 309.98,-2.69 315.23,-2.68 320.05,-2.67 324.87,-2.66 329.79,-2.66 334.72,-2.65 338.82,-2.68 342.93,-2.71 348.41,-2.70 353.89,-2.69 359.74,-2.39 365.58,-2.09 371.74,-1.96 377.89,-1.84 382.81,-1.78 387.73,-1.72 392.41,-1.70 397.08,-1.67 401.18,-1.42 405.28,-1.18 409.51,-1.04 413.73,-0.90 416.98,-1.02 420.23,-1.14 423.04,-1.31 425.85,-1.47 429.27,-1.40 432.68,-1.34 432.79,-1.28 432.90,-1.21 433.36,-1.02 433.83,-0.83 434.23,-0.53 434.64,-0.23 434.96,0.15 435.29,0.54 435.51,0.99 435.73,1.45 435.83,1.94 435.94,2.44 435.92,2.94 435.91,3.45 435.77,3.93 435.64,4.42 435.39,4.86 435.14,5.30 434.79,5.67 434.45,6.03 434.02,6.31 433.60,6.58 433.12,6.75 432.64,6.91 432.14,6.96 431.63,7.00 431.13,6.92 430.64,6.85 426.79,8.41 422.94,9.97 417.31,10.71 411.67,11.46 407.30,11.98 402.93,12.50 395.55,13.25 388.17,14.00 374.63,14.86 361.10,15.71 350.23,16.62 339.36,17.53 329.82,18.18 320.28,18.84 309.30,19.39 298.32,19.94 288.83,20.74 279.33,21.53 268.38,22.44 257.42,23.34 248.48,24.30 239.54,25.25 229.10,26.23 218.66,27.20 210.48,27.90 202.30,28.61 193.42,29.76 184.54,30.91 177.61,31.97 170.68,33.03 163.64,33.78 156.60,34.52 150.87,35.68 145.15,36.84 140.84,37.36 136.53,37.88 134.77,38.63 133.01,39.38 132.63,39.38 132.25,39.38 131.88,39.29 131.52,39.20 131.18,39.02 130.84,38.84 130.56,38.59 130.28,38.34 130.06,38.02 129.85,37.71 129.71,37.36 129.58,37.00 129.54,36.62 129.49,36.25 129.54,35.87 129.58,35.49 129.72,35.14 129.85,34.79 130.07,34.47 130.29,34.16 130.57,33.91 130.86,33.66 131.19,33.48 131.53,33.31 131.90,33.22 132.27,33.13 136.94,32.56 141.61,32.00 150.84,30.91 160.07,29.83 173.53,28.80 186.98,27.77 221.82,27.92 256.67,28.06 281.23,28.71 305.80,29.36 320.24,29.63 334.68,29.91 351.78,30.61 368.87,31.31 383.63,32.18 398.38,33.06 406.63,33.43 414.88,33.80 418.69,33.86 422.49,33.93 425.31,33.83 428.13,33.74 428.65,33.84 429.16,33.95 429.62,34.22 430.07,34.48 430.42,34.88 430.77,35.28 430.97,35.77 431.17,36.25 431.21,36.78 431.24,37.31 431.11,37.82 430.97,38.33 430.68,38.77 430.39,39.21 429.98,39.53 429.56,39.86 429.06,40.03 428.56,40.21 428.04,40.21 427.51,40.22 427.01,40.06 426.50,39.90 426.08,39.58 425.66,39.27 425.35,38.83 425.05,38.40 424.91,37.90 424.76,37.39 424.78,36.86 424.80,36.33 424.99,35.84 425.18,35.35 425.52,34.94 425.85,34.54 426.30,34.26 426.75,33.98 427.26,33.86 427.78,33.74 428.30,33.79 428.83,33.84 429.31,34.06 429.79,34.27 430.18,34.63 430.57,34.99 430.82,35.45 431.07,35.91 431.16,36.43 431.26,36.95 431.18,37.48 431.10,38.00 430.86,38.47 430.62,38.94 430.24,39.30 429.86,39.67 429.38,39.90 428.91,40.13 428.38,40.19 427.86,40.25 427.86,40.25 427.86,40.25 425.06,39.93 422.26,39.60 418.45,39.35 414.65,39.10 406.36,38.73 398.07,38.37 383.36,37.51 368.66,36.65 351.62,35.97 334.58,35.29 320.12,35.03 305.66,34.77 281.15,34.16 256.65,33.55 222.03,33.44 187.42,33.33 174.09,34.40 160.76,35.47 151.62,36.63 142.48,37.79 137.75,38.58 133.01,39.38 132.63,39.38 132.25,39.38 131.88,39.29 131.52,39.20 131.18,39.02 130.84,38.84 130.56,38.59 130.28,38.34 130.06,38.02 129.85,37.71 129.71,37.36 129.58,37.00 129.54,36.62 129.49,36.25 129.54,35.87 129.58,35.49 129.72,35.14 129.85,34.79 130.07,34.47 130.29,34.16 130.57,33.91 130.86,33.66 131.19,33.48 131.53,33.31 131.90,33.22 132.27,33.13 134.08,32.88 135.90,32.63 140.01,32.15 144.11,31.67 150.07,30.47 156.04,29.27 162.96,28.54 169.88,27.80 176.87,26.72 183.86,25.64 192.85,24.47 201.84,23.30 210.00,22.58 218.15,21.87 228.56,20.87 238.96,19.88 247.96,18.90 256.96,17.91 267.91,16.97 278.86,16.02 288.44,15.17 298.02,14.32 308.94,13.70 319.85,13.08 329.34,12.33 338.83,11.58 349.75,10.53 360.66,9.49 374.03,8.46 387.39,7.43 394.61,6.45 401.82,5.47 406.09,4.62 410.35,3.78 415.57,2.65 420.79,1.53 423.83,0.73 426.88,-0.06 429.89,-0.64 432.89,-1.21 433.36,-1.02 433.83,-0.83 434.23,-0.53 434.64,-0.23 434.96,0.15 435.29,0.54 435.51,0.99 435.73,1.45 435.83,1.94 435.94,2.44 435.92,2.94 435.91,3.45 435.77,3.93 435.64,4.42 435.39,4.86 435.14,5.30 434.79,5.67 434.45,6.03 434.02,6.31 433.60,6.58 433.12,6.75 432.64,6.91 432.14,6.96 431.63,7.00 431.14,6.92 430.64,6.85 430.43,6.66 430.23,6.48 428.01,5.94 425.79,5.40 422.96,5.19 420.13,4.98 416.85,4.75 413.58,4.52 409.22,4.41 404.87,4.30 400.97,3.95 397.06,3.61 392.37,3.59 387.68,3.57 382.73,3.52 377.79,3.48 371.55,3.36 365.32,3.24 359.60,2.96 353.89,2.69 348.41,2.70 342.93,2.71 338.82,2.68 334.72,2.65 329.79,2.66 324.87,2.66 320.05,2.67 315.23,2.68 309.98,2.69 304.73,2.70 300.49,2.71 296.26,2.72 291.70,2.74 287.14,2.76 283.18,2.70 279.22,2.63 273.95,2.64 268.69,2.64 263.75,2.65 258.81,2.66 252.59,2.69 246.38,2.72 240.54,2.77 234.71,2.83 228.42,2.97 222.13,3.10 214.66,3.42 207.19,3.75 200.55,3.82 193.92,3.89 187.10,4.05 180.28,4.21 172.90,4.59 165.52,4.97 157.78,5.16 150.04,5.36 143.86,5.82 137.67,6.28 132.69,6.65 127.70,7.03 121.83,7.91 115.96,8.80 111.64,9.49 107.31,10.19 102.44,11.11 97.57,12.04 93.59,12.74 89.62,13.44 84.90,14.46 80.19,15.49 75.94,16.43 71.68,17.37 66.23,18.81 60.78,20.25 56.66,21.45 52.53,22.66 48.48,23.83 44.43,25.00 41.58,25.85 38.74,26.69 35.38,27.59 32.03,28.49 31.49,28.65 30.94,28.81 30.37,28.83 29.81,28.86 29.25,28.75 28.69,28.64 28.18,28.40 27.67,28.16 27.22,27.80 26.78,27.44 26.44,26.99 26.10,26.54 25.87,26.02 25.65,25.50 25.55,24.94 25.46,24.38 25.50,23.81 25.54,23.25 25.72,22.71 25.90,22.17 26.20,21.69 26.50,21.21 26.91,20.81 27.31,20.42 27.80,20.13 28.29,19.84 31.24,19.45 34.19,19.05 36.43,18.56 38.67,18.06 41.47,17.29 44.27,16.51 47.04,15.98 49.81,15.45 53.17,14.54 56.52,13.64 60.68,12.58 64.83,11.51 68.60,10.50 72.37,9.49 75.98,8.47 79.59,7.45 83.99,6.16 88.39,4.87 92.46,4.00 96.54,3.12 99.99,2.61 103.44,2.10 107.60,1.25 111.75,0.39 116.53,-0.27 121.30,-0.94 126.59,-1.86 131.88,-2.79 137.53,-3.60 143.18,-4.41 148.90,-4.96 154.62,-5.50 161.93,-6.09 169.24,-6.69 176.41,-7.42 183.57,-8.16 189.52,-8.53 195.46,-8.89 200.53,-9.07 205.60,-9.25 211.57,-9.67 217.54,-10.10 223.46,-10.42 229.39,-10.74 234.39,-10.81 239.39,-10.88 244.40,-11.04 249.41,-11.20 254.60,-11.58 259.79,-11.97 265.07,-12.18 270.35,-12.38 276.17,-12.88 281.99,-13.37 288.87,-13.84 295.75,-14.31 301.82,-14.72 307.89,-15.14 313.26,-15.40 318.63,-15.67 325.29,-16.27 331.96,-16.87 338.85,-17.57 345.74,-18.27 353.24,-19.18 360.74,-20.10 366.85,-20.82 372.96,-21.55 379.84,-22.45 386.73,-23.35 393.78,-24.70 400.83,-26.04 406.18,-26.90 411.54,-27.77 415.25,-28.78 418.97,-29.80 421.28,-30.25 423.58,-30.69 425.89,-31.48 428.21,-32.26 428.77,-32.39 429.33,-32.53 429.90,-32.53 430.48,-32.53 431.03,-32.39 431.59,-32.25 432.10,-31.98 432.61,-31.71 433.04,-31.33 433.46,-30.94 433.79,-30.47 434.11,-29.99 434.32,-29.46 434.52,-28.92 434.58,-28.35 434.65,-27.78 434.58,-27.21 434.51,-26.64 434.30,-26.10 434.10,-25.56 433.77,-25.09 433.44,-24.62 433.01,-24.24 432.58,-23.86 432.07,-23.59 431.56,-23.33 431.77,-23.47 431.98,-23.61 428.83,-23.05 425.67,-22.50 423.33,-22.46 420.98,-22.43 417.82,-22.07 414.66,-21.71 411.33,-21.46 408.00,-21.20 405.28,-21.29 402.55,-21.37 399.50,-21.33 396.46,-21.30 393.02,-20.97 389.58,-20.65 385.05,-20.18 380.51,-19.72 375.93,-19.33 371.35,-18.94 367.51,-18.83 363.66,-18.73 359.16,-18.28 354.67,-17.84 349.54,-17.47 344.41,-17.10 339.96,-16.93 335.51,-16.75 330.91,-16.32 326.32,-15.90 320.96,-15.57 315.59,-15.25 309.90,-15.17 304.21,-15.09 297.59,-14.90 290.96,-14.71 283.37,-14.26 275.78,-13.81 267.40,-13.43 259.03,-13.06 249.58,-12.85 240.12,-12.64 229.98,-12.15 219.83,-11.66 209.49,-11.18 199.15,-10.71 189.68,-10.26 180.22,-9.82 170.13,-9.46 160.05,-9.10 150.61,-8.93 141.17,-8.77 131.06,-8.38 120.94,-7.99 112.11,-7.75 103.28,-7.52 93.90,-6.99 84.53,-6.45 75.34,-5.88 66.15,-5.31 58.71,-4.66 51.26,-4.01 44.42,-3.17 37.58,-2.33 31.76,-1.75 25.93,-1.18 20.99,-0.55 16.05,0.07 11.87,0.79 7.70,1.50 4.23,2.29 0.77,3.08 0.39,3.13 0.01,3.17 -0.37,3.13 -0.75,3.09 -1.10,2.95 -1.46,2.82 -1.78,2.60 -2.10,2.38 -2.35,2.10 -2.61,1.81 -2.79,1.47 -2.96,1.13 -3.06,0.76 -3.15,0.39 -3.15,0.01 -3.15,-0.37 -3.06,-0.74 -2.97,-1.11 -2.79,-1.45 -2.62,-1.79 -2.36,-2.08 -2.11,-2.37 -1.80,-2.59 -1.48,-2.81 -1.12,-2.94 -0.77,-3.08 -0.77,-3.08 L -0.77,-3.08 Z"></path></g></svg>